<?xml version="1.0" encoding="utf-8"?>
<!-- Generator: Adobe Illustrator 29.6.1, SVG Export Plug-In . SVG Version: 9.03 Build 0)  -->
<svg version="1.1" xmlns="http://www.w3.org/2000/svg" xmlns:xlink="http://www.w3.org/1999/xlink" x="0px" y="0px"
	 viewBox="0 0 1024 1024" style="enable-background:new 0 0 1024 1024;" xml:space="preserve">
<g>
</g>
<g id="_x31___x2013__Layer">
	<g>
		<path style="fill:#FFFFFF;" d="M200.9643555,875.5C172.0356445,875.5,148.5,851.9648438,148.5,823.0351562V200.9648438
			C148.5,172.0351562,172.0356445,148.5,200.9643555,148.5h622.0708008C851.9648438,148.5,875.5,172.0351562,875.5,200.9648438
			v622.0703125C875.5,851.9648438,851.9648438,875.5,823.0351562,875.5H200.9643555z"/>
		<path d="M823.0355835,169C840.6608276,169,855,183.3392029,855,200.9645996v622.0708008
			C855,840.6608276,840.6608276,855,823.0355835,855H200.9645996C183.3392029,855,169,840.6608276,169,823.0354004V200.9645996
			C169,183.3392029,183.3392029,169,200.9645996,169H823.0355835 M823.0355835,128H200.9645996
			C160.6674042,128,128,160.6674042,128,200.9645996v622.0708008C128,863.3328247,160.6674042,896,200.9645996,896h622.0709839
			C863.3328247,896,896,863.3328247,896,823.0354004V200.9645996C896,160.6674042,863.3328247,128,823.0355835,128L823.0355835,128z
			"/>
	</g>
</g>
</svg>
