<?xml version="1.0" encoding="utf-8"?>
<!-- Generator: Adobe Illustrator 29.6.1, SVG Export Plug-In . SVG Version: 9.03 Build 0)  -->
<svg version="1.1" xmlns="http://www.w3.org/2000/svg" xmlns:xlink="http://www.w3.org/1999/xlink" x="0px" y="0px"
	 viewBox="0 0 1024 1024" style="enable-background:new 0 0 1024 1024;" xml:space="preserve">
<g>
</g>
<g id="_x33___x2013__Layer">
	<g>
		<g>
			<path d="M334.1750183,337.6888733c3.4490051-10.3441467,18.4523926-14.6415405,26.8181458-7.5896606
				c0.7320862,0.6171265,1.8308411,0.5830994,2.3558655-0.3035583c2.8007202-4.7300415,6.6499329-10.4729004,12.1306152-12.3204346
				c2.6928711-0.9077759,5.3370056-0.4712219,7.7229919,1.0291443c2.4925232,1.5673523,4.4984131,3.7952271,7.0264282,5.3171082
				c5.8716736,3.5347595,12.3786926,1.2310181,17.6229858-2.3212891c5.2573853-3.5611572,9.7124023-8.4847107,16.0409241-10.1831665
				c2.8071899-0.7533875,5.815918-0.6484375,8.1923523,1.1864929c2.1102295,1.629364,3.6714478,4.1271362,6.3861389,4.8522034
				c3.2172241,0.8592834,5.7134399-1.8860779,8.888092-1.6702576c3.0812683,0.2094421,5.8772888,2.2093506,7.9850769,4.3261108
				c8.1007385,8.1351624,11.0195618,21.8831177,6.3329773,32.4478455
				c-2.8381958,6.3980103-8.4167786,11.1389465-13.2855225,15.9728394
				c-5.6216125,5.5813904-11.2432556,11.1627808-16.8648682,16.7442017c-1.142395,1.1342163-2.2600403,2.455719-3.6849976,3.2457275
				c-1.4835815,0.8225403-2.6195984,0.4198608-3.5216064-0.9235535c-0.7709351-1.1482849-1.3227234-2.4072876-2.1615295-3.5163574
				c-0.8505554-1.1246033-1.8177185-2.1230469-2.9238281-2.9976807c-4.2321777-3.346344-10.467926-4.5080566-14.0835876,0.3459778
				c-1.5972595,2.1443481-2.2234192,5.3145752-4.4547729,6.9332581c-2.463501,1.7871094-5.7789612,0.502655-8.1191101-0.848999
				c-5.1868286-2.9958191-9.5878601-9.3114624-16.3202209-8.3333435c-3.2372742,0.4703369-5.1952515,2.874115-7.7772522,4.5782776
				c-2.971405,1.9611816-6.8212891,1.4040222-10.2012024,1.3396301c-7.9608459-0.1517029-15.9216919-0.3033752-23.8825378-0.4550781
				c-3.9804077-0.0758667-7.9608459-0.1517029-11.9412537-0.2275391c-3.4412842-0.0655823-7.1767883,0.1793518-10.4287415-1.1431274
				c-4.5266418-1.8408508-6.2032166-6.5702209-6.083374-11.1450806c0.1360168-5.1940002,2.2483826-10.0555115,5.4225159-14.1002197
				c3.849884-4.9057617,8.5339661-9.0933228,12.2094727-14.1453247c1.7342834-2.3837891,3.1516724-4.9449158,4.1611023-7.7177124
				c0.661499-1.8170776-2.2365417-2.6002808-2.8928528-0.7975159c-4.2929688,11.7924805-17.1225586,17.988739-20.8086243,30.1462402
				c-1.4625854,4.8240356-1.7200317,10.4621582,0.7151184,15.0238342c1.1486511,2.1517029,2.9718323,3.958313,5.1545105,5.0531311
				c3.2759705,1.6432495,6.9741211,1.7189331,10.5606384,1.7878418c8.2925415,0.1593628,16.5851135,0.31604,24.877655,0.4740601
				c4.1462708,0.07901,8.2925415,0.1579895,12.4388123,0.2369995c3.5779419,0.0681763,7.5517578,0.5597229,10.8982544-1.000824
				c2.8110352-1.3108521,4.8103027-4.4816589,7.9950562-4.9585571c3.3414001-0.5003357,6.5737,1.9702148,9.0048828,3.9387512
				c4.3910522,3.555481,11.1218872,8.9039917,16.8295898,4.6661072c2.459259-1.8259583,3.2008057-4.7862854,4.8332825-7.2269592
				c1.5540771-2.3234558,4.0385132-2.8608093,6.6056824-2.0114746c2.6151123,0.8651733,4.9513855,2.8962402,6.396759,5.2141418
				c1.5562744,2.4957581,2.9177246,5.5810852,6.4273987,5.271637c3.5662231-0.3144226,6.2902832-4.0033569,8.632843-6.3291321
				c2.9279175-2.9069824,5.8558655-5.8139648,8.783783-8.7209473c2.927948-2.9069824,5.8558655-5.8139648,8.783783-8.7209473
				c2.6124268-2.5937195,5.2697754-5.1608582,7.5417175-8.0668335c7.9273376-10.1396179,8.1513367-24.1298218,2.0369873-35.2460938
				c-2.9155579-5.3006897-7.7431946-11.0023804-14.0614929-11.9849854c-1.4842529-0.230835-3.0145874-0.178009-4.4568481,0.2683105
				c-1.508667,0.4668579-3.1195068,1.8016663-4.7642517,1.3807983c-1.2215576-0.3125916-2.1826477-1.3571472-3.0515747-2.2062988
				c-1.0945129-1.0695496-2.1837158-2.1657715-3.5173645-2.9412537c-5.7857971-3.3641357-12.8419189-0.3187256-17.8358154,3.0980225
				c-5.3598633,3.6671143-10.4519653,9.6885376-17.3562012,10.2180176
				c-6.7537842,0.5179443-10.1073303-6.511322-16.0965271-8.225647c-6.0369263-1.7279663-11.5754395,2.1268311-15.3809509,6.4648743
				c-2.0026245,2.2828979-3.7265625,4.8009644-5.2719421,7.4108887c0.7853088-0.1011963,1.5705872-0.2023926,2.3558655-0.3035889
				c-7.8497925-6.6169739-20.2286987-5.2447205-27.3887634,1.7810974c-2.0342712,1.9961548-3.5429382,4.4313965-4.443512,7.1323547
				C330.6701355,338.7270508,333.5663757,339.5143127,334.1750183,337.6888733L334.1750183,337.6888733z"/>
		</g>
	</g>
	<g>
		<g>
			<path d="M263.6274109,563.8792114c8.32724,4.548584,15.7969971-3.3361816,21.5899963-8.4263306
				c3.6386108-3.1972046,7.4573669-6.3330078,12.2901917-7.4237671c3.0149841-0.680542,6.1248169-0.7194824,9.1943054-0.9498901
				c2.9499207-0.2214355,5.8753357-0.6576538,8.7412415-1.3985596c11.6304626-3.0067749,21.6727295-10.111145,31.0571594-17.3356934
				c10.9040527-8.3944092,21.7006226-16.9317017,32.5456543-25.4022217
				c11.0985718-8.6685486,22.197113-17.3370667,33.2956543-26.0056152
				c10.4320374-8.1479492,20.9561768-16.2257996,30.6682434-25.2375488
				c9.6000671-8.9078674,18.0114136-18.8848267,25.8733521-29.3378601
				c8.1514282-10.8378906,15.9125671-21.9752197,23.8031006-33.0032654
				c8.1972656-11.4567566,16.3945312-22.9134827,24.5918274-34.3702393c1.7421875-2.434967,3.4202881-4.9681396,5.6071167-7.0361938
				c2.2827148-2.1587219,5.0431519-3.2175293,8.1049194-3.7451477c3.2575684-0.5613708,6.6013184-0.7385864,9.8891602-1.0586243
				c3.4567261-0.3364563,6.9134521-0.6729431,10.3701782-1.0094299s6.9135132-0.6729431,10.3702393-1.0094299
				c-0.4317627-0.2476501-0.8634644-0.4952698-1.2952271-0.7429199
				c12.920166,19.2459717,23.963501,39.5704651,33.4779053,60.6967773c2.1348877,4.740448,4.3430786,9.4981384,7.3563843,13.7571411
				c2.9942017,4.2320251,6.7223511,7.5620728,11.0147705,10.4359131c4.2084961,2.8176575,8.7332764,5.2466736,12.5118408,8.6568298
				c3.717041,3.3546143,6.2643433,7.6199341,8.5076904,12.0464478c2.2446899,4.4292297,4.2229004,9.0169373,6.9557495,13.1795959
				c2.3972778,3.6514893,5.4091797,6.7834778,8.6835327,9.6544189c6.1206055,5.3665466,13.4719849,9.9775391,18.0289307,16.8771057
				c2.2857056,3.4607849,3.2021484,7.1014404,3.6849365,11.174408c0.5108032,4.3096313,1.3533325,9.1177979,5.7608643,11.1072083
				c2.2373047,1.0097961,4.7340698,1.0415039,7.1448975,1.0623779c2.3912964,0.0207214,4.7709961,0.1648254,7.1317749,0.5617371
				c4.7610474,0.8004761,9.3687744,2.3693237,13.6951294,4.4998779c8.8382568,4.352478,16.5128174,10.7158203,23.5748291,17.5091553
				c8.0234985,7.7181396,15.4559326,16.0560303,23.0494995,24.1904907c2.0897827,2.2386475,4.1795654,4.4772949,6.2693481,6.7159424
				c1.3202515,1.4143677,3.4382935-0.7105103,2.1213379-2.1213379c-7.9946899-8.5641479-15.8763428-17.2532959-24.0462646-25.651123
				c-6.9453125-7.1389771-14.3173828-14.0183716-22.7276611-19.4146118
				c-8.0276489-5.1507874-17.1079712-8.7690125-26.7106323-9.2342529c-2.399231-0.1162415-4.9227905,0.165741-7.2623291-0.4842224
				c-2.2011108-0.6114807-3.5386963-2.2251282-4.1914062-4.3562012c-1.2338257-4.0282898-0.8984375-8.3218384-2.4432983-12.295105
				c-3.0128174-7.7489624-9.739563-13.0367432-15.9959717-18.1204834c-3.2324829-2.6265564-6.4753418-5.2734985-9.3276978-8.319397
				c-3.3026733-3.5267944-5.6729736-7.667511-7.8145142-11.9712524c-2.1743774-4.3698425-4.1600342-8.8707275-6.9363403-12.9059448
				c-2.8406372-4.1287231-6.486084-7.3222351-10.62677-10.1025696c-4.2652588-2.8639832-8.8612061-5.3197937-12.6860352-8.7896118
				c-3.8118896-3.4580688-6.5776978-7.8190002-8.9094849-12.3678589c-2.4726562-4.8234863-4.5471191-9.8454285-6.8462524-14.7520752
				c-2.4660034-5.2626648-5.0481567-10.4708557-7.7440186-15.6195679
				c-5.3557129-10.2287903-11.159668-20.2228394-17.3902588-29.9435425
				c-1.5471802-2.4139099-3.1220093-4.809906-4.7200928-7.1904297c-0.2770996-0.4127808-0.7599487-0.7950134-1.295166-0.7429199
				c-7.078125,0.6889954-14.156189,1.3779602-21.2342529,2.066925c-5.993042,0.583374-12.9377441,0.4502563-17.96698,4.2432556
				c-2.2412109,1.6903381-3.9874268,3.8673706-5.6361084,6.1176147c-1.9804688,2.7032166-3.9058228,5.4481812-5.8558044,8.1734924
				c-4.050415,5.6609802-8.1008301,11.3219604-12.1512451,16.9829407
				c-8.1228027,11.3526611-16.2253723,22.7200928-24.3716431,34.0559082
				c-7.6105042,10.590271-15.3930664,21.1002502-24.3025513,30.6481018
				c-8.9833679,9.6269836-19.1229553,18.0658569-29.4363403,26.2174988
				c-10.7496338,8.49646-21.5870361,16.8835449-32.3855591,25.317749
				c-11.0745544,8.6498108-22.1491089,17.2995911-33.2236633,25.9494019
				c-9.6557312,7.541626-19.2043152,15.6651001-30.2762451,21.0859375
				c-5.3227234,2.6060181-11.0599365,4.4645386-16.9808655,5.0009766
				c-5.8378296,0.5289307-11.6900635,0.4316406-16.9295044,3.4430542
				c-3.9700623,2.2817993-7.3127441,5.5178223-10.7332153,8.5200195c-2.8724976,2.5211792-6.1580505,5.56073-10.0617371,6.2509766
				c-1.7285156,0.3056641-3.4079895-0.0817261-4.9324646-0.9144287
				C263.4465027,560.362915,261.9306946,562.9524536,263.6274109,563.8792114L263.6274109,563.8792114z"/>
		</g>
	</g>
</g>
</svg>
